<svg width="25" height="25" viewBox="0 0 25 25" fill="none" xmlns="http://www.w3.org/2000/svg">
<path d="M8.6352 2.46322L9.7122 2.11922C10.7202 1.79722 11.7982 2.31822 12.2302 3.33622L13.0902 5.36422C13.4652 6.24722 13.2572 7.28622 12.5762 7.93222L10.6832 9.73022C10.7999 10.8062 11.1612 11.8652 11.7672 12.9072C12.3435 13.9151 13.1156 14.7974 14.0382 15.5022L16.3142 14.7422C17.1762 14.4552 18.1152 14.7862 18.6442 15.5632L19.8762 17.3732C20.4922 18.2772 20.3812 19.5232 19.6182 20.2892L18.8002 21.1102C17.9862 21.9272 16.8242 22.2242 15.7482 21.8882C13.2095 21.0962 10.8752 18.7452 8.7452 14.8352C6.61253 10.9186 5.85987 7.59589 6.4872 4.86722C6.7512 3.71922 7.5692 2.80422 8.6372 2.46322" fill="black"/>
</svg>
