<svg width="161" height="161" viewBox="0 0 161 161" fill="none" xmlns="http://www.w3.org/2000/svg">
<path fill-rule="evenodd" clip-rule="evenodd" d="M28.168 11.0282C26.5988 12.9112 26.535 15.9812 28.0167 18.3326C36.6682 32.0647 52.8453 40.4828 70.5453 40.464C78.8481 40.4549 85.8976 39.0149 93.207 35.8345C105.206 30.6138 114.836 20.9986 119.253 9.82838C120.231 7.3564 120.301 5.66417 119.494 3.99278C118.496 1.92637 116.601 0.813314 114.126 0.841266C112.404 0.860734 110.936 1.57647 108.412 3.62625C106.085 5.51681 102.741 7.93107 99.8089 9.83755C96.568 11.945 87.8253 16.1113 84.5487 17.1099C76.9919 19.4128 69.9997 19.9648 62.2418 18.8711C54.5731 17.7897 46.3467 15.0271 37.1091 10.431C33.4197 8.59538 32.4251 8.46329 30.2595 9.52255C29.3537 9.9655 28.604 10.5055 28.168 11.0282ZM2.13446 43.3431C1.14311 44.4924 0.65237 45.7277 0.624764 47.1442C0.601116 48.3564 0.697338 48.6777 1.53475 50.1793C2.0497 51.1029 3.23544 52.7928 4.16944 53.9346C8.26105 58.9363 11.3308 63.7449 14.1284 69.5342C19.4531 80.5537 20.6967 90.1242 18.3609 102.104C17.452 106.765 14.0614 116.447 11.6133 121.37C10.6174 123.374 9.59662 125.605 9.34469 126.328C8.16451 129.72 10.2298 133.239 13.891 134.076C14.9412 134.315 15.1916 134.268 16.9274 133.507C18.3246 132.894 19.4547 132.193 21.2492 130.827C36.0608 119.546 43.2478 98.8761 39.2166 79.1521C37.1273 68.9294 32.4005 59.8754 25.4194 52.7231C22.6987 49.9357 17.8399 46.2104 14.7842 44.5689C11.5263 42.8188 7.6287 41.3444 6.35178 41.3793C5.05227 41.4145 2.95631 42.3907 2.13446 43.3431ZM140.646 29.2888C132.742 34.9893 127.026 42.8764 123.578 52.8376C118.477 67.5766 120.198 84.9354 128.079 98.2288C133.692 107.697 141.365 114.504 150.8 118.387C154.322 119.836 156.549 119.651 158.53 117.745C159.821 116.503 160.361 115.331 160.382 113.727C160.405 111.949 159.633 110.355 157.466 107.701C152.992 102.222 149.746 97.1844 146.918 91.3327C143.001 83.2242 141.43 76.4969 141.585 68.4812C141.768 59.0181 144.796 48.3688 150.432 37.3702C151.266 35.7427 151.872 34.1827 151.982 33.3793C152.531 29.365 148.872 26.0228 144.934 26.9402C143.529 27.2674 143.195 27.4501 140.646 29.2888ZM61.2722 128.672C54.9543 132.664 49.2369 138.279 45.5028 144.16C43.0206 148.069 41.0224 152.776 41.0416 154.668C41.0562 156.092 41.8847 157.937 42.9186 158.848C45.1778 160.838 49.0384 160.629 51.6004 158.377C53.0504 157.102 57.9499 153.479 60.5365 151.768C64.3509 149.246 72.9039 145.094 76.6011 143.969C86.1151 141.075 95.1915 140.927 105.543 143.495C109.439 144.462 116.475 147.045 120.702 149.061C126.23 151.697 126.661 151.862 128.202 151.93C131.836 152.093 134.522 149.082 133.943 145.495C133.617 143.477 130.635 139.122 127.026 135.392C114.181 122.119 92.7007 117.183 73.5269 123.1C70.7029 123.971 63.6015 127.2 61.2722 128.672Z" fill="#FF6037"/>
</svg>
