<svg width="29" height="29" viewBox="0 0 29 29" fill="none" xmlns="http://www.w3.org/2000/svg">
<path d="M16.6845 28.0498V18.4866H19.8505L20.4533 14.5306H16.6845V11.9636C16.6845 10.8815 17.2106 9.82672 18.8984 9.82672H20.6115V6.45915C20.6115 6.45915 19.0566 6.19228 17.5697 6.19228C14.4658 6.19228 12.4373 8.08673 12.4373 11.5169V14.5316H8.98685V18.4876H12.4373V28.0507C5.94117 27.0243 0.972778 21.3625 0.972778 14.5316C0.972778 6.97332 7.05637 0.846191 14.5609 0.846191C22.0654 0.846191 28.149 6.97332 28.149 14.5316C28.149 21.3625 23.1796 27.0243 16.6845 28.0507V28.0498Z" fill="#242424"/>
</svg>
