<svg width="27" height="27" viewBox="0 0 27 27" fill="none" xmlns="http://www.w3.org/2000/svg">
<path d="M26.5695 8.41908C26.5073 7.04775 26.2895 6.11027 25.9709 5.29091C25.6416 4.44363 25.2018 3.72522 24.4862 3.00895C23.7707 2.29269 23.0531 1.8524 22.2067 1.52273C21.3882 1.20379 20.4517 0.985794 19.0818 0.92351C17.7086 0.861226 17.2699 0.846191 13.7738 0.846191C10.2777 0.846191 9.83899 0.861226 8.46588 0.92351C7.09598 0.985794 6.15947 1.20379 5.34097 1.52273C4.49457 1.8524 3.77691 2.29269 3.06139 3.00895C2.34587 3.72522 1.90604 4.44363 1.57671 5.29091C1.2581 6.11027 1.04034 7.04775 0.978117 8.41908C0.915897 9.79362 0.900879 10.2328 0.900879 13.7326C0.900879 17.2323 0.915897 17.6715 0.978117 19.046C1.04034 20.4174 1.2581 21.3548 1.57671 22.1742C1.90604 23.0215 2.34587 23.7399 3.06139 24.4562C3.77691 25.1724 4.49457 25.6127 5.34097 25.9424C6.15947 26.2613 7.09598 26.4782 8.46588 26.5416C9.83899 26.6039 10.2777 26.6189 13.7738 26.6189C17.2699 26.6189 17.7086 26.6039 19.0818 26.5416C20.4517 26.4793 21.3882 26.2613 22.2067 25.9424C23.0531 25.6127 23.7707 25.1724 24.4862 24.4562C25.2018 23.7399 25.6416 23.0215 25.9709 22.1742C26.2895 21.3548 26.5062 20.4174 26.5695 19.046C26.6317 17.6715 26.6468 17.2323 26.6468 13.7326C26.6468 10.2328 26.6317 9.79362 26.5695 8.41908ZM24.2524 18.9397C24.1955 20.1961 23.9853 20.878 23.8093 21.3323C23.5755 21.9337 23.2966 22.3632 22.846 22.8142C22.3955 23.2652 21.9664 23.5444 21.3656 23.7785C20.9119 23.9547 20.2307 24.1651 18.9756 24.2221C17.6185 24.2843 17.2109 24.2972 13.7738 24.2972C10.3367 24.2972 9.9291 24.2843 8.57208 24.2221C7.31697 24.1651 6.63577 23.9547 6.182 23.7785C5.58127 23.5444 5.15217 23.2652 4.70161 22.8142C4.25106 22.3632 3.97215 21.9337 3.73829 21.3323C3.56236 20.878 3.3521 20.1961 3.29525 18.9397C3.23303 17.5813 3.22015 17.1732 3.22015 13.7326C3.22015 10.2919 3.23303 9.88383 3.29525 8.52539C3.3521 7.26897 3.56236 6.58707 3.73829 6.13282C3.97215 5.53146 4.25106 5.10191 4.70161 4.65089C5.15217 4.19987 5.58127 3.92066 6.182 3.68656C6.63577 3.51045 7.31697 3.29997 8.57208 3.24305C9.9291 3.18077 10.3367 3.16788 13.7738 3.16788C17.2109 3.16788 17.6185 3.18077 18.9756 3.24305C20.2307 3.29997 20.9119 3.51045 21.3656 3.68656C21.9664 3.92066 22.3955 4.19987 22.846 4.65089C23.2966 5.10191 23.5755 5.53146 23.8093 6.13282C23.9853 6.58707 24.1955 7.26897 24.2524 8.52539C24.3146 9.88383 24.3275 10.2919 24.3275 13.7326C24.3275 17.1732 24.3146 17.5813 24.2524 18.9397ZM13.7738 7.11541C10.1233 7.11541 7.16356 10.0782 7.16356 13.7326C7.16356 17.3869 10.1233 20.3497 13.7738 20.3497C17.4244 20.3497 20.3841 17.3869 20.3841 13.7326C20.3841 10.0782 17.4244 7.11541 13.7738 7.11541ZM13.7738 18.028C11.4041 18.028 9.48284 16.1047 9.48284 13.7326C9.48284 11.3604 11.4041 9.4371 13.7738 9.4371C16.1435 9.4371 18.0648 11.3604 18.0648 13.7326C18.0648 16.1047 16.1435 18.028 13.7738 18.028ZM22.1906 6.85338C22.1906 7.70711 21.4987 8.39975 20.6458 8.39975C19.793 8.39975 19.1011 7.70711 19.1011 6.85338C19.1011 5.99966 19.793 5.30702 20.6458 5.30702C21.4987 5.30702 22.1906 5.99966 22.1906 6.85338Z" fill="#242424"/>
</svg>
