<svg width="196" height="67" viewBox="0 0 196 67" fill="none" xmlns="http://www.w3.org/2000/svg">
<path d="M127.211 44.9998V24.1447H131.305V32.6844H134.728V24.1447H138.821V44.9998H134.728V35.7191H131.305V44.9998H127.211ZM140.589 44.9998L144.329 24.1447H150.187L153.857 44.9998H149.269L148.634 41.1534H145.599L145 44.9998H140.589ZM145.67 39.1067H148.599L147.152 27.7794L145.67 39.1067ZM160.759 45.2468C159.395 45.2468 158.265 45.0468 157.371 44.6469C156.477 44.2234 155.819 43.6353 155.395 42.8825C154.972 42.1062 154.76 41.1769 154.76 40.0948V37.6952H158.854V39.0008C158.854 40.0595 158.995 40.8711 159.277 41.4357C159.559 42.0003 160.03 42.2944 160.688 42.3179C161.3 42.3179 161.747 42.0709 162.029 41.5769C162.335 41.0828 162.488 40.4476 162.488 39.6713V37.6599C162.488 36.8836 162.229 36.3307 161.712 36.0014C161.194 35.672 160.43 35.4956 159.418 35.4721H157.76V33.2137H159.453C159.924 33.2137 160.347 33.1549 160.724 33.0372C161.1 32.9196 161.418 32.7549 161.677 32.5432C161.959 32.308 162.159 32.0609 162.276 31.8022C162.394 31.5199 162.453 31.2258 162.453 30.92V29.4732C162.453 28.7909 162.323 28.2028 162.065 27.7088C161.806 27.2148 161.347 26.9677 160.688 26.9677C160.006 26.9677 159.536 27.2501 159.277 27.8147C159.042 28.3793 158.924 29.1556 158.924 30.1436V30.9905H154.795V29.0497C154.795 27.403 155.278 26.1561 156.242 25.3092C157.23 24.4623 158.736 24.0389 160.759 24.0389C162.876 24.0389 164.394 24.427 165.311 25.2034C166.252 25.9797 166.723 27.1442 166.723 28.6968V30.2848C166.723 31.4846 166.417 32.4491 165.805 33.1784C165.217 33.9077 164.347 34.3429 163.194 34.484C164.347 34.5546 165.229 34.9545 165.84 35.6838C166.452 36.4131 166.758 37.3776 166.758 38.5774V40.0948C166.758 41.271 166.558 42.2473 166.158 43.0236C165.758 43.7764 165.111 44.3411 164.217 44.7175C163.347 45.0703 162.194 45.2468 160.759 45.2468ZM169.012 44.9998V24.1447H176.423C177.74 24.1447 178.74 24.4623 179.422 25.0975C180.128 25.7092 180.481 26.5678 180.481 27.6735V30.0378C180.481 30.6494 180.387 31.214 180.198 31.7316C180.034 32.2256 179.775 32.6491 179.422 33.0019C179.163 33.2607 178.834 33.4607 178.434 33.6018C178.034 33.743 177.646 33.8253 177.27 33.8488V33.8841C177.669 33.8841 178.058 33.9312 178.434 34.0253C178.81 34.1194 179.163 34.3076 179.493 34.5899C179.893 34.8957 180.21 35.3192 180.445 35.8602C180.681 36.3778 180.798 37.0247 180.798 37.8011V40.6594C180.798 41.7886 180.598 42.6708 180.198 43.3059C179.822 43.9411 179.269 44.3881 178.54 44.6469C177.834 44.8821 176.987 44.9998 175.999 44.9998H169.012ZM173.141 42.8472H175.046C175.399 42.8472 175.682 42.7884 175.893 42.6708C176.129 42.5296 176.305 42.2826 176.423 41.9297C176.564 41.5769 176.634 41.0593 176.634 40.3771V37.9069C176.634 36.9659 176.47 36.3543 176.14 36.072C175.835 35.7661 175.423 35.6132 174.905 35.6132H173.141V42.8472ZM173.141 33.0372H174.799C175.34 33.0372 175.764 32.849 176.07 32.4726C176.399 32.0962 176.564 31.4375 176.564 30.4965V28.4145C176.564 27.6853 176.423 27.1677 176.14 26.8619C175.882 26.5325 175.54 26.3679 175.117 26.3679H173.141V33.0372ZM182.148 44.9998L185.889 24.1447H191.746L195.416 44.9998H190.829L190.194 41.1534H187.159L186.559 44.9998H182.148ZM187.229 39.1067H190.158L188.712 27.7794L187.229 39.1067Z" fill="black"/>
<path d="M5.25067 33.919L35.398 2.68994V28.7809C34.2817 29.556 32.03 31.839 31.9535 34.7697C31.8771 37.7004 34.218 38.8248 35.398 39.0207H74.0475L49.4663 63.602H15.4544C11.9914 62.7362 7.20899 58.191 5.25067 56.0266C-1.30449 47.3691 2.51935 37.6809 5.25067 33.919Z" fill="#FF6037" stroke="#FF6037" stroke-width="1.54108"/>
<path d="M105.91 34.0032L75.0271 64.5052L75.6486 38.4217C76.783 37.6734 79.0885 35.4447 79.2348 32.5166C79.381 29.5886 77.0675 28.4087 75.8925 28.1848L37.2539 27.2642L62.4138 3.27537L96.416 4.08553C99.8574 5.03353 104.53 9.69138 106.436 11.9018C112.783 20.7131 108.73 30.3074 105.91 34.0032Z" fill="#FF6037" stroke="#FF6037" stroke-width="1.54108"/>
</svg>
