<svg width="196" height="66" viewBox="0 0 196 66" fill="none" xmlns="http://www.w3.org/2000/svg">
<path d="M127.211 44.4822V23.6272H131.305V32.1668H134.728V23.6272H138.821V44.4822H134.728V35.2015H131.305V44.4822H127.211ZM140.589 44.4822L144.329 23.6272H150.187L153.857 44.4822H149.269L148.634 40.6358H145.599L145 44.4822H140.589ZM145.67 38.5891H148.599L147.152 27.2618L145.67 38.5891ZM160.759 44.7292C159.395 44.7292 158.265 44.5292 157.371 44.1293C156.477 43.7058 155.819 43.1177 155.395 42.3649C154.972 41.5886 154.76 40.6593 154.76 39.5772V37.1776H158.854V38.4833C158.854 39.5419 158.995 40.3535 159.277 40.9181C159.559 41.4827 160.03 41.7768 160.688 41.8003C161.3 41.8003 161.747 41.5533 162.029 41.0593C162.335 40.5652 162.488 39.9301 162.488 39.1537V37.1423C162.488 36.366 162.229 35.8132 161.712 35.4838C161.194 35.1545 160.43 34.978 159.418 34.9545H157.76V32.6961H159.453C159.924 32.6961 160.347 32.6373 160.724 32.5197C161.1 32.402 161.418 32.2374 161.677 32.0256C161.959 31.7904 162.159 31.5434 162.276 31.2846C162.394 31.0023 162.453 30.7082 162.453 30.4024V28.9556C162.453 28.2734 162.323 27.6852 162.065 27.1912C161.806 26.6972 161.347 26.4502 160.688 26.4502C160.006 26.4502 159.536 26.7325 159.277 27.2971C159.042 27.8617 158.924 28.638 158.924 29.6261V30.473H154.795V28.5321C154.795 26.8854 155.278 25.6386 156.242 24.7917C157.23 23.9447 158.736 23.5213 160.759 23.5213C162.876 23.5213 164.394 23.9095 165.311 24.6858C166.252 25.4621 166.723 26.6266 166.723 28.1793V29.7672C166.723 30.967 166.417 31.9315 165.805 32.6608C165.217 33.3901 164.347 33.8253 163.194 33.9664C164.347 34.037 165.229 34.437 165.84 35.1662C166.452 35.8955 166.758 36.86 166.758 38.0598V39.5772C166.758 40.7534 166.558 41.7297 166.158 42.5061C165.758 43.2589 165.111 43.8235 164.217 44.1999C163.347 44.5528 162.194 44.7292 160.759 44.7292ZM169.012 44.4822V23.6272H176.423C177.74 23.6272 178.74 23.9447 179.422 24.5799C180.128 25.1916 180.481 26.0502 180.481 27.1559V29.5202C180.481 30.1319 180.387 30.6965 180.198 31.214C180.034 31.708 179.775 32.1315 179.422 32.4844C179.163 32.7431 178.834 32.9431 178.434 33.0843C178.034 33.2254 177.646 33.3077 177.27 33.3313V33.3666C177.669 33.3666 178.058 33.4136 178.434 33.5077C178.81 33.6018 179.163 33.79 179.493 34.0723C179.893 34.3781 180.21 34.8016 180.445 35.3427C180.681 35.8602 180.798 36.5072 180.798 37.2835V40.1418C180.798 41.271 180.598 42.1532 180.198 42.7884C179.822 43.4235 179.269 43.8705 178.54 44.1293C177.834 44.3646 176.987 44.4822 175.999 44.4822H169.012ZM173.141 42.3296H175.046C175.399 42.3296 175.682 42.2708 175.893 42.1532C176.129 42.012 176.305 41.765 176.423 41.4121C176.564 41.0593 176.634 40.5417 176.634 39.8595V37.3894C176.634 36.4483 176.47 35.8367 176.14 35.5544C175.835 35.2486 175.423 35.0957 174.905 35.0957H173.141V42.3296ZM173.141 32.5197H174.799C175.34 32.5197 175.764 32.3315 176.07 31.9551C176.399 31.5786 176.564 30.9199 176.564 29.9789V27.897C176.564 27.1677 176.423 26.6501 176.14 26.3443C175.882 26.015 175.54 25.8503 175.117 25.8503H173.141V32.5197ZM182.148 44.4822L185.889 23.6272H191.746L195.416 44.4822H190.829L190.194 40.6358H187.159L186.559 44.4822H182.148ZM187.229 38.5891H190.158L188.712 27.2618L187.229 38.5891Z" fill="white"/>
<path d="M5.25067 33.4014L35.398 2.17236V28.2633C34.2817 29.0385 32.03 31.3214 31.9535 34.2522C31.8771 37.1829 34.218 38.3073 35.398 38.5031H74.0475L49.4663 63.0844H15.4544C11.9914 62.2187 7.20899 57.6734 5.25067 55.509C-1.30449 46.8515 2.51935 37.1633 5.25067 33.4014Z" fill="#FF6037" stroke="#FF6037" stroke-width="1.54108"/>
<path d="M105.91 33.4856L75.0271 63.9877L75.6486 37.9041C76.783 37.1558 79.0885 34.9271 79.2348 31.999C79.381 29.071 77.0675 27.8911 75.8925 27.6672L37.2539 26.7466L62.4138 2.75779L96.416 3.56795C99.8574 4.51595 104.53 9.1738 106.436 11.3842C112.783 20.1955 108.73 29.7898 105.91 33.4856Z" fill="#FF6037" stroke="#FF6037" stroke-width="1.54108"/>
</svg>
