<svg width="70" height="42" viewBox="0 0 70 42" fill="none" xmlns="http://www.w3.org/2000/svg">
<path d="M3.14402 20.9739L22.0189 1.42188V17.7571C21.3199 18.2424 19.9102 19.6717 19.8623 21.5066C19.8144 23.3415 21.2801 24.0454 22.0189 24.1681H46.2168L30.8268 39.5581H9.53243C7.36428 39.016 4.37009 36.1703 3.14402 34.8152C-0.960084 29.3949 1.43397 23.3292 3.14402 20.9739Z" fill="#FF6037" stroke="#FF6037" stroke-width="0.964848"/>
<path d="M66.1653 21.0265L46.83 40.1234L47.2191 23.7928C47.9294 23.3243 49.3728 21.9289 49.4644 20.0957C49.556 18.2625 48.1075 17.5238 47.3719 17.3836L23.1808 16.8072L38.933 1.78818L60.2213 2.29542C62.3759 2.88895 65.3015 5.80516 66.495 7.18908C70.4688 12.7057 67.9309 18.7126 66.1653 21.0265Z" fill="#FF6037" stroke="#FF6037" stroke-width="0.964848"/>
</svg>
