<svg width="82" height="31" viewBox="0 0 82 31" fill="none" xmlns="http://www.w3.org/2000/svg">
<path d="M79.981 17.4082C81.0855 17.4082 81.981 16.5128 81.981 15.4082C81.981 14.3036 81.0855 13.4082 79.981 13.4082V17.4082ZM1.47373 13.994C0.692677 14.775 0.692677 16.0414 1.47373 16.8224L14.2016 29.5503C14.9827 30.3314 16.249 30.3314 17.0301 29.5503C17.8111 28.7693 17.8111 27.503 17.0301 26.7219L5.71637 15.4082L17.0301 4.09449C17.8111 3.31345 17.8111 2.04712 17.0301 1.26607C16.249 0.485019 14.9827 0.485019 14.2016 1.26607L1.47373 13.994ZM79.981 13.4082L2.88794 13.4082V17.4082L79.981 17.4082V13.4082Z" fill="#585858"/>
</svg>
