<svg width="26" height="25" viewBox="0 0 26 25" fill="none" xmlns="http://www.w3.org/2000/svg">
<path d="M7.11322 4.68994C6.28442 4.68994 5.48956 5.01918 4.90351 5.60523C4.31746 6.19128 3.98822 6.98614 3.98822 7.81494V8.129L13.3632 13.1774L22.7382 8.13057V7.81494C22.7382 6.98614 22.409 6.19128 21.8229 5.60523C21.2369 5.01918 20.442 4.68994 19.6132 4.68994H7.11322ZM22.7382 9.904L13.7335 14.7524C13.6197 14.8137 13.4925 14.8458 13.3632 14.8458C13.234 14.8458 13.1067 14.8137 12.9929 14.7524L3.98822 9.904V17.1899C3.98822 18.0187 4.31746 18.8136 4.90351 19.3996C5.48956 19.9857 6.28442 20.3149 7.11322 20.3149H19.6132C20.442 20.3149 21.2369 19.9857 21.8229 19.3996C22.409 18.8136 22.7382 18.0187 22.7382 17.1899V9.904Z" fill="black"/>
</svg>
