<svg width="434" height="222" viewBox="0 0 434 222" fill="none" xmlns="http://www.w3.org/2000/svg">
<path d="M33.1652 128.263C32.6016 122.878 36.2009 117.786 41.817 116.02L48.5359 113.906C55.843 111.591 60.5278 104.975 59.7941 97.966L64.3314 141.311L43.5747 138.378C37.969 137.587 33.7069 133.437 33.1652 128.263ZM33.1652 128.263L37.1876 166.688C38.3211 177.516 47.2197 186.167 58.9218 187.816L99.3414 192.723C107.892 193.934 115.505 187.33 114.677 179.423L112.736 160.885C111.888 152.776 105.215 146.282 96.4427 145.042L64.3321 141.317" stroke="#161616" stroke-width="9.80539" stroke-linecap="round" stroke-linejoin="round"/>
<path d="M140.505 141.474C141.069 146.858 137.47 151.95 131.853 153.717L125.135 155.837C117.827 158.139 113.143 164.761 113.876 171.77L109.339 128.425L130.096 131.358C135.701 132.149 139.963 136.299 140.505 141.474ZM140.505 141.474L136.482 103.042C135.349 92.2204 126.451 83.5695 114.748 81.9138L74.3284 77.0062C65.7787 75.8019 58.1658 82.4066 58.9934 90.313L60.934 108.851C61.7829 116.96 68.4558 123.454 77.2277 124.694L109.338 128.419" stroke="#161616" stroke-width="9.80539" stroke-linecap="round" stroke-linejoin="round"/>
<path d="M162.738 103.069C162.174 97.6849 165.773 92.5931 171.39 90.8264L178.109 88.7125C185.416 86.398 190.1 79.782 189.367 72.7729L193.904 116.118L173.147 113.185C167.542 112.394 163.28 108.244 162.738 103.069ZM162.738 103.069L166.76 141.495C167.894 152.323 176.792 160.974 188.494 162.623L228.914 167.53C237.464 168.741 245.077 162.136 244.25 154.23L242.309 135.692C241.46 127.583 234.787 121.089 226.015 119.849L193.905 116.124" stroke="#161616" stroke-width="9.80539" stroke-linecap="round" stroke-linejoin="round"/>
<path d="M270.078 116.28C270.641 121.665 267.042 126.757 261.426 128.523L254.708 130.644C247.399 132.945 242.715 139.568 243.449 146.577L238.912 103.232L259.668 106.165C265.274 106.956 269.536 111.105 270.078 116.28ZM270.078 116.28L266.055 77.8485C264.922 67.027 256.023 58.3761 244.321 56.7204L203.901 51.8128C195.351 50.6085 187.738 57.2132 188.566 65.1197L190.507 83.6576C191.356 91.7671 198.028 98.2604 206.8 99.501L238.911 103.226" stroke="#161616" stroke-width="9.80539" stroke-linecap="round" stroke-linejoin="round"/>
<path d="M292.63 80.2296C292.067 74.8451 295.666 69.7532 301.282 67.9865L308.001 65.8727C315.308 63.5581 319.993 56.9421 319.259 49.9331L323.797 93.2778L303.04 90.3448C297.434 89.5542 293.172 85.4045 292.63 80.2296ZM292.63 80.2296L296.653 118.655C297.786 129.483 306.685 138.134 318.387 139.783L358.807 144.69C367.357 145.901 374.97 139.297 374.142 131.39L372.202 112.852C371.353 104.743 364.68 98.2494 355.908 97.0088L323.797 93.2843" stroke="#161616" stroke-width="9.80539" stroke-linecap="round" stroke-linejoin="round"/>
<path d="M399.97 93.4404C400.534 98.8249 396.935 103.917 391.319 105.683L384.6 107.804C377.292 110.105 372.608 116.728 373.342 123.737L368.804 80.3922L389.561 83.3252C395.167 84.1158 399.429 88.2655 399.97 93.4404ZM399.97 93.4404L395.947 55.0086C394.815 44.1872 385.916 35.5363 374.213 33.8806L333.794 28.973C325.244 27.7687 317.631 34.3734 318.459 42.2798L320.399 60.8178C321.248 68.9273 327.921 75.4206 336.693 76.6612L368.804 80.3857" stroke="#161616" stroke-width="9.80539" stroke-linecap="round" stroke-linejoin="round"/>
</svg>
