<svg width="144" height="144" viewBox="0 0 144 144" fill="none" xmlns="http://www.w3.org/2000/svg">
<g clip-path="url(#clip0_7_223)">
<path d="M64.9845 43.7548L75.1866 55.0727L90.1946 53.3746L82.0976 65.7206L89.3507 78.9362L73.1152 74.6966L61.0611 86.3699L60.8804 71.2959L47.7602 64.5251L62.0603 58.5219L64.9845 43.7548Z" fill="#FD6036"/>
<path d="M91.5661 119.938L84.498 118.015L92.1383 89.5447L113.356 83.9694C114.285 83.7267 115.158 83.3028 115.923 82.7223C116.688 82.1417 117.332 81.4158 117.816 80.5861C118.3 79.7565 118.616 78.8394 118.746 77.8874C118.875 76.9355 118.815 75.9674 118.57 75.0386L107.419 32.6042C107.176 31.6746 106.752 30.8022 106.172 30.0367C105.591 29.2713 104.865 28.628 104.036 28.1436C103.206 27.6592 102.289 27.3434 101.337 27.2141C100.385 27.0848 99.4169 27.1446 98.4881 27.3902L27.7641 45.9744C26.8346 46.2172 25.9621 46.641 25.1967 47.2216C24.4312 47.8021 23.7879 48.5281 23.3035 49.3577C22.8192 50.1874 22.5033 51.1045 22.374 52.0564C22.2447 53.0084 22.3046 53.9765 22.5501 54.9053L33.7007 97.3397C33.9434 98.2692 34.3672 99.1417 34.9478 99.9071C35.5284 100.673 36.2543 101.316 37.084 101.8C37.9136 102.285 38.8307 102.601 39.7827 102.73C40.7346 102.859 41.7027 102.799 42.6315 102.554L74.4573 94.1908L76.3158 101.263L44.4899 109.626C40.7385 110.612 36.7491 110.067 33.3994 108.111C30.0497 106.156 27.614 102.95 26.6283 99.1981L15.4777 56.7637C14.4919 53.0123 15.0368 49.0229 16.9924 45.6732C18.948 42.3235 22.1542 39.8878 25.9057 38.902L96.6297 20.3178C100.381 19.332 104.371 19.8769 107.72 21.8325C111.07 23.7881 113.506 26.9943 114.491 30.7457L125.642 73.1802C126.628 76.9316 126.083 80.921 124.127 84.2707C122.172 87.6204 118.965 90.056 115.214 91.0418L98.1165 95.5346L91.5661 119.938Z" fill="#FD6036"/>
</g>
<defs>
<clipPath id="clip0_7_223">
<rect width="117" height="117" fill="white" transform="translate(0.97168 30.3328) rotate(-14.7229)"/>
</clipPath>
</defs>
</svg>
