<svg width="22" height="31" viewBox="0 0 22 31" fill="none" xmlns="http://www.w3.org/2000/svg">
<path d="M3.9749 0.854394L5.60451 0.333887C7.12972 -0.153333 8.76084 0.634994 9.4145 2.17533L10.7158 5.24391C11.2832 6.57998 10.9685 8.15209 9.93804 9.12955L7.07373 11.8501C7.25026 13.4782 7.797 15.0806 8.71394 16.6572C9.58589 18.1822 10.7543 19.5173 12.1502 20.5837L15.594 19.4338C16.8983 18.9995 18.3191 19.5004 19.1195 20.676L20.9837 23.4148C21.9158 24.7826 21.7478 26.6679 20.5933 27.827L19.3556 29.0692C18.1239 30.3054 16.3657 30.7548 14.7376 30.2464C10.8963 29.048 7.36425 25.4907 4.14134 19.5745C0.914394 13.6482 -0.224468 8.62065 0.724752 4.49189C1.12421 2.75485 2.36193 1.37036 3.97792 0.854394" fill="black"/>
</svg>
