<svg width="25" height="21" viewBox="0 0 25 21" fill="none" xmlns="http://www.w3.org/2000/svg">
<path fill-rule="evenodd" clip-rule="evenodd" d="M1.9152 9.07665C8.51445 6.19833 12.9149 4.30144 15.1167 3.38401C21.4032 0.766552 22.7091 0.31177 23.5607 0.297005C23.7475 0.294052 24.1664 0.340317 24.4378 0.560817C24.667 0.746864 24.7299 0.99788 24.7604 1.17408C24.7909 1.35029 24.8282 1.75191 24.7977 2.06593C24.4575 5.64905 22.9835 14.344 22.2332 18.3573C21.9155 20.0554 21.2911 20.6253 20.6864 20.6805C19.3716 20.8015 18.3735 19.8113 17.1001 18.9755C15.1078 17.6683 13.9819 16.8542 12.0486 15.5784C9.81346 14.1038 11.2629 13.2937 12.5364 11.9697C12.8697 11.6232 18.6616 6.34894 18.7737 5.87054C18.7875 5.81049 18.8003 5.58802 18.6685 5.4699C18.5368 5.35177 18.3411 5.39213 18.1995 5.42461C17.9998 5.4699 14.8167 7.57547 8.65114 11.7423C7.74744 12.3635 6.92929 12.6657 6.1967 12.6499C5.38839 12.6322 3.83371 12.1922 2.67827 11.8162C1.26028 11.3545 0.134349 11.1113 0.231701 10.3278C0.282835 9.91927 0.844327 9.50288 1.91618 9.07566L1.9152 9.07665Z" fill="#242424"/>
</svg>
