<svg width="28" height="23" viewBox="0 0 28 23" fill="none" xmlns="http://www.w3.org/2000/svg">
<path d="M24.8669 5.72428C24.8836 5.96742 24.8836 6.21056 24.8836 6.45567C24.8836 13.9281 19.2008 22.5453 8.81074 22.5453V22.5404C5.74171 22.5453 2.73561 21.6643 0.151367 20.0056C0.597808 20.0597 1.04622 20.0863 1.49561 20.0873C4.03953 20.0893 6.50971 19.2348 8.51181 17.6618C6.09473 17.6155 3.97463 16.0386 3.23417 13.7351C4.08083 13.8985 4.95306 13.8651 5.78498 13.6377C3.1496 13.1051 1.2537 10.7869 1.2537 8.09465V8.02279C2.0394 8.46084 2.91851 8.70398 3.81729 8.73056C1.33532 7.06992 0.570274 3.76438 2.0689 1.1804C4.93733 4.71332 9.16868 6.86123 13.7108 7.08862C13.2555 5.12479 13.877 3.06646 15.3451 1.68538C17.6206 -0.455631 21.199 -0.345381 23.3378 1.93049C24.6033 1.68046 25.8158 1.21584 26.925 0.557291C26.5032 1.86651 25.6211 2.97787 24.4421 3.68465C25.5621 3.55274 26.6556 3.25251 27.6861 2.79478C26.928 3.93271 25.9722 4.92299 24.8669 5.72428V5.72428Z" fill="#242424"/>
</svg>
